name rise30.2954peak35.7071fall66.7804.mot
datacolumns 19
datarows 33
range 8.65163700000000 8.70497200000000
endheader
time	ground_force1_vx	ground_force1_vy	ground_force1_vz	ground_force1_px	ground_force1_py	ground_force1_pz	ground_force2_vx	ground_force2_vy	ground_force2_vz	ground_force2_px	ground_force2_py	ground_force2_pz	ground_torque1_x	ground_torque1_y	ground_torque1_z	ground_torque2_x	ground_torque2_y	ground_torque2_z	
8.65163700000000	17.37806800000000	687.43026299999997	39.70723000000000	0.24213600000000	0.00000000000000	0.11511400000000	0.00000000000000	0.00000000000000	0.00000000000000	0.00000000000000	0.00000000000000	0.00000000000000	0.00000000000000	16.78940400000000	0.00000000000000	0.00000000000000	0.00000000000000	0.00000000000000	
8.65330300000000	16.94823000000000	688.62991299999999	39.73967900000000	0.24137300000000	0.00000000000000	0.11508600000000	0.00000000000000	0.00000000000000	0.00000000000000	0.00000000000000	0.00000000000000	0.00000000000000	0.00000000000000	16.88243700000000	0.00000000000000	0.00000000000000	0.00000000000000	0.00000000000000	
8.65497600000000	16.50375400000000	689.87621500000000	39.77719700000000	0.24057300000000	0.00000000000000	0.11506000000000	0.00000000000000	0.00000000000000	0.00000000000000	0.00000000000000	0.00000000000000	0.00000000000000	0.00000000000000	16.97947600000000	0.00000000000000	0.00000000000000	0.00000000000000	0.00000000000000	
8.65663900000000	16.04460500000000	691.16806999999994	39.81944100000000	0.23973500000000	0.00000000000000	0.11503600000000	0.00000000000000	0.00000000000000	0.00000000000000	0.00000000000000	0.00000000000000	0.00000000000000	0.00000000000000	17.08029700000000	0.00000000000000	0.00000000000000	0.00000000000000	0.00000000000000	
8.65830100000000	15.57080000000000	692.50442299999997	39.86607300000000	0.23886000000000	0.00000000000000	0.11501500000000	0.00000000000000	0.00000000000000	0.00000000000000	0.00000000000000	0.00000000000000	0.00000000000000	0.00000000000000	17.18467900000000	0.00000000000000	0.00000000000000	0.00000000000000	0.00000000000000	
8.65997300000000	15.08241000000000	693.88426400000003	39.91676300000000	0.23794900000000	0.00000000000000	0.11499500000000	0.00000000000000	0.00000000000000	0.00000000000000	0.00000000000000	0.00000000000000	0.00000000000000	0.00000000000000	17.29240200000000	0.00000000000000	0.00000000000000	0.00000000000000	0.00000000000000	
8.66163800000000	14.57955900000000	695.30662700000005	39.97118500000000	0.23700000000000	0.00000000000000	0.11497900000000	0.00000000000000	0.00000000000000	0.00000000000000	0.00000000000000	0.00000000000000	0.00000000000000	0.00000000000000	17.40324900000000	0.00000000000000	0.00000000000000	0.00000000000000	0.00000000000000	
8.66330200000000	14.06242300000000	696.77058499999998	40.02902700000000	0.23601600000000	0.00000000000000	0.11496400000000	0.00000000000000	0.00000000000000	0.00000000000000	0.00000000000000	0.00000000000000	0.00000000000000	0.00000000000000	17.51700500000000	0.00000000000000	0.00000000000000	0.00000000000000	0.00000000000000	
8.66496700000000	13.53122600000000	698.27525000000003	40.08998200000000	0.23499600000000	0.00000000000000	0.11495100000000	0.00000000000000	0.00000000000000	0.00000000000000	0.00000000000000	0.00000000000000	0.00000000000000	0.00000000000000	17.63346000000000	0.00000000000000	0.00000000000000	0.00000000000000	0.00000000000000	
8.66663900000000	12.98624600000000	699.81976899999995	40.15375600000000	0.23394200000000	0.00000000000000	0.11494100000000	0.00000000000000	0.00000000000000	0.00000000000000	0.00000000000000	0.00000000000000	0.00000000000000	0.00000000000000	17.75240600000000	0.00000000000000	0.00000000000000	0.00000000000000	0.00000000000000	
8.66830600000000	12.42780700000000	701.40332300000000	40.22006700000000	0.23285600000000	0.00000000000000	0.11493200000000	0.00000000000000	0.00000000000000	0.00000000000000	0.00000000000000	0.00000000000000	0.00000000000000	0.00000000000000	17.87364000000000	0.00000000000000	0.00000000000000	0.00000000000000	0.00000000000000	
8.66997200000000	11.85628000000000	703.02512200000001	40.28864500000000	0.23173800000000	0.00000000000000	0.11492500000000	0.00000000000000	0.00000000000000	0.00000000000000	0.00000000000000	0.00000000000000	0.00000000000000	0.00000000000000	17.99696300000000	0.00000000000000	0.00000000000000	0.00000000000000	0.00000000000000	
8.67164200000000	11.27208200000000	704.68439999999998	40.35923400000000	0.23059100000000	0.00000000000000	0.11492000000000	0.00000000000000	0.00000000000000	0.00000000000000	0.00000000000000	0.00000000000000	0.00000000000000	0.00000000000000	18.12218100000000	0.00000000000000	0.00000000000000	0.00000000000000	0.00000000000000	
8.67330300000000	10.67567200000000	706.38041699999997	40.43159200000000	0.22941600000000	0.00000000000000	0.11491700000000	0.00000000000000	0.00000000000000	0.00000000000000	0.00000000000000	0.00000000000000	0.00000000000000	0.00000000000000	18.24910300000000	0.00000000000000	0.00000000000000	0.00000000000000	0.00000000000000	
8.67497100000000	10.06755000000000	708.11244799999997	40.50549200000000	0.22821500000000	0.00000000000000	0.11491500000000	0.00000000000000	0.00000000000000	0.00000000000000	0.00000000000000	0.00000000000000	0.00000000000000	0.00000000000000	18.37754500000000	0.00000000000000	0.00000000000000	0.00000000000000	0.00000000000000	
8.67663400000000	9.44825400000000	709.87978199999998	40.58072200000000	0.22699000000000	0.00000000000000	0.11491400000000	0.00000000000000	0.00000000000000	0.00000000000000	0.00000000000000	0.00000000000000	0.00000000000000	0.00000000000000	18.50732500000000	0.00000000000000	0.00000000000000	0.00000000000000	0.00000000000000	
8.67830800000000	8.81835600000000	711.68172100000004	40.65708800000000	0.22574400000000	0.00000000000000	0.11491500000000	0.00000000000000	0.00000000000000	0.00000000000000	0.00000000000000	0.00000000000000	0.00000000000000	0.00000000000000	18.63826800000000	0.00000000000000	0.00000000000000	0.00000000000000	0.00000000000000	
8.67997300000000	8.17846500000000	713.51756699999999	40.73440900000000	0.22447900000000	0.00000000000000	0.11491600000000	0.00000000000000	0.00000000000000	0.00000000000000	0.00000000000000	0.00000000000000	0.00000000000000	0.00000000000000	18.77020200000000	0.00000000000000	0.00000000000000	0.00000000000000	0.00000000000000	
8.68164000000000	7.52921600000000	715.38662899999997	40.81252600000000	0.22319700000000	0.00000000000000	0.11491900000000	0.00000000000000	0.00000000000000	0.00000000000000	0.00000000000000	0.00000000000000	0.00000000000000	0.00000000000000	18.90296000000000	0.00000000000000	0.00000000000000	0.00000000000000	0.00000000000000	
8.68330100000000	6.87127300000000	717.28820800000005	40.89129300000000	0.22190100000000	0.00000000000000	0.11492200000000	0.00000000000000	0.00000000000000	0.00000000000000	0.00000000000000	0.00000000000000	0.00000000000000	0.00000000000000	19.03637900000000	0.00000000000000	0.00000000000000	0.00000000000000	0.00000000000000	
8.68497300000000	6.20532300000000	719.22159699999997	40.97058400000000	0.22059300000000	0.00000000000000	0.11492700000000	0.00000000000000	0.00000000000000	0.00000000000000	0.00000000000000	0.00000000000000	0.00000000000000	0.00000000000000	19.17030200000000	0.00000000000000	0.00000000000000	0.00000000000000	0.00000000000000	
8.68663900000000	5.53207400000000	721.18607799999995	41.05029000000000	0.21927600000000	0.00000000000000	0.11493100000000	0.00000000000000	0.00000000000000	0.00000000000000	0.00000000000000	0.00000000000000	0.00000000000000	0.00000000000000	19.30457500000000	0.00000000000000	0.00000000000000	0.00000000000000	0.00000000000000	
8.68830700000000	4.85225100000000	723.18091600000002	41.13032200000000	0.21795200000000	0.00000000000000	0.11493600000000	0.00000000000000	0.00000000000000	0.00000000000000	0.00000000000000	0.00000000000000	0.00000000000000	0.00000000000000	19.43904700000000	0.00000000000000	0.00000000000000	0.00000000000000	0.00000000000000	
8.68997300000000	4.16659400000000	725.20535199999995	41.21060400000000	0.21662500000000	0.00000000000000	0.11494200000000	0.00000000000000	0.00000000000000	0.00000000000000	0.00000000000000	0.00000000000000	0.00000000000000	0.00000000000000	19.57357200000000	0.00000000000000	0.00000000000000	0.00000000000000	0.00000000000000	
8.69163900000000	3.47585300000000	727.25860200000000	41.29108400000000	0.21529500000000	0.00000000000000	0.11494700000000	0.00000000000000	0.00000000000000	0.00000000000000	0.00000000000000	0.00000000000000	0.00000000000000	0.00000000000000	19.70800700000000	0.00000000000000	0.00000000000000	0.00000000000000	0.00000000000000	
8.69330300000000	2.78078400000000	729.33985399999995	41.37172300000000	0.21396700000000	0.00000000000000	0.11495300000000	0.00000000000000	0.00000000000000	0.00000000000000	0.00000000000000	0.00000000000000	0.00000000000000	0.00000000000000	19.84221300000000	0.00000000000000	0.00000000000000	0.00000000000000	0.00000000000000	
8.69497000000000	2.08215000000000	731.44825900000001	41.45250200000000	0.21264200000000	0.00000000000000	0.11495800000000	0.00000000000000	0.00000000000000	0.00000000000000	0.00000000000000	0.00000000000000	0.00000000000000	0.00000000000000	19.97605300000000	0.00000000000000	0.00000000000000	0.00000000000000	0.00000000000000	
8.69663400000000	1.38071100000000	733.58293100000003	41.53341800000000	0.21132200000000	0.00000000000000	0.11496300000000	0.00000000000000	0.00000000000000	0.00000000000000	0.00000000000000	0.00000000000000	0.00000000000000	0.00000000000000	20.10939500000000	0.00000000000000	0.00000000000000	0.00000000000000	0.00000000000000	
8.69830700000000	0.67722600000000	735.74294299999997	41.61448500000000	0.21001100000000	0.00000000000000	0.11496800000000	0.00000000000000	0.00000000000000	0.00000000000000	0.00000000000000	0.00000000000000	0.00000000000000	0.00000000000000	20.24210600000000	0.00000000000000	0.00000000000000	0.00000000000000	0.00000000000000	
8.69997000000000	-0.02755100000000	737.92732300000000	41.69573400000000	0.20870900000000	0.00000000000000	0.11497300000000	0.00000000000000	0.00000000000000	0.00000000000000	0.00000000000000	0.00000000000000	0.00000000000000	0.00000000000000	20.37406000000000	0.00000000000000	0.00000000000000	0.00000000000000	0.00000000000000	
8.70163300000000	-0.73287700000000	740.13504999999998	41.77721100000000	0.20741900000000	0.00000000000000	0.11497700000000	0.00000000000000	0.00000000000000	0.00000000000000	0.00000000000000	0.00000000000000	0.00000000000000	0.00000000000000	20.50513000000000	0.00000000000000	0.00000000000000	0.00000000000000	0.00000000000000	
8.70330700000000	-1.43802100000000	742.36505399999999	41.85897600000000	0.20614400000000	0.00000000000000	0.11498000000000	0.00000000000000	0.00000000000000	0.00000000000000	0.00000000000000	0.00000000000000	0.00000000000000	0.00000000000000	20.63519300000000	0.00000000000000	0.00000000000000	0.00000000000000	0.00000000000000	
8.70497200000000	-2.14226600000000	744.61620900000003	41.94110400000000	0.20488300000000	0.00000000000000	0.11498300000000	0.00000000000000	0.00000000000000	0.00000000000000	0.00000000000000	0.00000000000000	0.00000000000000	0.00000000000000	20.76412800000000	0.00000000000000	0.00000000000000	0.00000000000000	0.00000000000000	
